<svg width="32" height="32" viewBox="0 0 32 32" fill="none" xmlns="http://www.w3.org/2000/svg">
  <defs>
    <linearGradient id="gradient" x1="0%" y1="0%" x2="100%" y2="100%">
      <stop offset="0%" style="stop-color:#3b82f6;stop-opacity:1" />
      <stop offset="100%" style="stop-color:#8b5cf6;stop-opacity:1" />
    </linearGradient>
  </defs>
  
  <!-- Background Circle -->
  <circle cx="16" cy="16" r="15" fill="url(#gradient)" stroke="rgba(255,255,255,0.2)" stroke-width="1"/>
  
  <!-- Letter A -->
  <path d="M16 6 L22 24 L19 24 L17.5 19 L14.5 19 L13 24 L10 24 L16 6 Z M16 9.5 L14.8 15 L17.2 15 L16 9.5 Z" fill="white"/>
  
  <!-- AI Circuit Pattern -->
  <circle cx="8" cy="8" r="1" fill="rgba(255,255,255,0.3)"/>
  <circle cx="24" cy="8" r="1" fill="rgba(255,255,255,0.3)"/>
  <circle cx="8" cy="24" r="1" fill="rgba(255,255,255,0.3)"/>
  <circle cx="24" cy="24" r="1" fill="rgba(255,255,255,0.3)"/>
  
  <!-- Connecting Lines -->
  <path d="M8 8 L12 12" stroke="rgba(255,255,255,0.2)" stroke-width="0.5"/>
  <path d="M24 8 L20 12" stroke="rgba(255,255,255,0.2)" stroke-width="0.5"/>
  <path d="M8 24 L12 20" stroke="rgba(255,255,255,0.2)" stroke-width="0.5"/>
  <path d="M24 24 L20 20" stroke="rgba(255,255,255,0.2)" stroke-width="0.5"/>
</svg>
